<?xml version="1.0" standalone="no"?>
<!DOCTYPE svg PUBLIC "-//W3C//DTD SVG 20010904//EN"
 "http://www.w3.org/TR/2001/REC-SVG-20010904/DTD/svg10.dtd">
<svg version="1.0" xmlns="http://www.w3.org/2000/svg"
 width="128.000000pt" height="128.000000pt" viewBox="0 0 128.000000 128.000000"
 preserveAspectRatio="xMidYMid meet">
<metadata>
Created by potrace 1.11, written by Peter Selinger 2001-2013
</metadata>
<g transform="translate(0.000000,128.000000) scale(0.100000,-0.100000)"
fill="#000000" stroke="none">
<path d="M519 1063 c-1 -10 -1 -25 0 -33 1 -12 -10 -15 -59 -13 -62 2 -66 -1
-61 -44 2 -13 -1 -14 -41 -17 -18 -1 -22 -7 -21 -24 3 -22 -8 -31 -44 -36 -16
-3 -18 -13 -18 -92 l0 -89 -30 -5 -30 -5 0 -211 c0 -205 0 -211 20 -211 39 -1
42 -3 41 -30 -1 -28 0 -28 59 -28 55 0 60 2 60 22 0 27 8 35 37 37 19 1 23 7
23 31 0 26 3 29 33 30 24 1 32 -3 31 -15 -4 -41 1 -49 29 -47 24 2 27 -2 30
-30 l3 -32 60 1 59 2 0 32 c0 30 2 32 30 28 28 -5 30 -3 30 29 0 30 3 34 25
33 30 -2 34 -6 38 -37 3 -16 11 -24 26 -25 28 -2 36 -10 36 -37 0 -20 5 -22
60 -22 59 0 60 0 59 28 -1 15 3 28 7 28 5 1 19 2 32 3 l22 1 0 212 1 212 -31
3 -30 3 0 88 c1 48 -3 88 -7 88 -4 1 -12 3 -18 4 -5 1 -17 3 -25 4 -9 1 -13
11 -12 29 2 23 -2 27 -25 26 -16 0 -29 5 -30 10 0 6 -2 16 -3 21 -2 6 -3 15
-4 22 -1 7 -21 11 -58 10 -51 -1 -58 1 -59 18 -1 11 -2 26 -3 33 -1 9 -32 12
-121 12 -107 0 -120 -2 -121 -17z"/>
</g>
</svg>
